<svg width="22" height="22" viewBox="0 0 22 22" fill="none" xmlns="http://www.w3.org/2000/svg">
<path fill-rule="evenodd" clip-rule="evenodd" d="M11.1381 3.40709L11.1413 0.447449L21.5 0.458488L21.4889 10.8173L18.5293 10.814L18.535 5.50367L14.03 10.0087C15.9807 12.8873 15.681 16.8354 13.131 19.3855C10.2415 22.275 5.55669 22.275 2.66716 19.3855C-0.222386 16.496 -0.222386 11.8111 2.66716 8.9215C5.17944 6.40925 9.04893 6.08126 11.9155 7.93756L16.4403 3.41274L11.1381 3.40709ZM4.75994 11.0143C6.49365 9.28065 9.3045 9.28065 11.0383 11.0143C12.772 12.748 12.772 15.5589 11.0383 17.2927C9.3045 19.0265 6.49365 19.0265 4.75994 17.2927C3.02622 15.5589 3.02622 12.748 4.75994 11.0143Z" fill="#D7D0CC"/>
</svg>
