<svg width="45" height="27" viewBox="0 0 45 27" fill="none" xmlns="http://www.w3.org/2000/svg">
<path fill-rule="evenodd" clip-rule="evenodd" d="M25.0962 7.0011L24.5318 6.95768C24.2193 6.93163 22.1266 6.74929 19.8777 6.55826C15.1542 6.15884 14.9892 6.16752 13.7215 6.78402C13.2439 7.01846 12.2974 7.84335 12.0196 8.26014C11.9241 8.39907 10.665 8.8419 6.34088 10.2486C3.28445 11.2384 0.766369 12.0633 0.749003 12.072C0.705588 12.1154 1.10501 13.4179 1.16579 13.4179C1.19184 13.4179 3.46679 12.6711 6.21063 11.7681C8.95448 10.865 11.2121 10.1444 11.2381 10.1704C11.2642 10.1878 11.2381 10.2399 11.1947 10.2833C11.1513 10.3267 9.02394 11.0474 6.47113 11.8983C3.91831 12.7493 1.79965 13.4526 1.7736 13.47C1.66072 13.5307 2.10356 14.7637 2.22512 14.7551C2.29458 14.7464 4.32642 14.0951 6.7403 13.2963C9.16287 12.5061 11.186 11.8549 11.2468 11.8549C11.707 11.8549 10.7345 12.2283 7.26128 13.3744C5.05579 14.1038 3.23235 14.7203 3.2063 14.7377C3.16289 14.7811 3.51021 15.8578 3.60572 15.962C3.64046 15.9967 4.96896 15.606 6.56664 15.0763C11.3944 13.496 11.9588 13.3137 11.9762 13.3484C12.584 14.3383 13.9559 15.5713 15.0066 16.0749C15.1889 16.1617 15.3191 16.2746 15.2931 16.3354C15.267 16.3961 14.8242 17.03 14.2945 17.7594C13.2613 19.1747 13.1744 19.4092 13.5304 19.7304C13.6346 19.8259 14.4856 20.1733 15.4147 20.5032C16.3437 20.8245 17.1339 21.1284 17.1686 21.1805C17.2034 21.2326 17.2555 21.4149 17.2815 21.5886C17.3336 21.8925 17.3857 21.9272 18.4364 22.4916C20.1816 23.4294 20.1903 23.4381 20.1903 23.8288C20.1903 24.1327 20.2424 24.2109 20.5637 24.4714C21.0065 24.8361 21.2497 24.9663 21.4841 24.9663C21.6925 24.9663 21.8314 24.7492 21.7793 24.5235C21.7533 24.428 21.7533 24.3585 21.7793 24.3585C21.7967 24.3585 22.4392 24.6971 23.186 25.1139C24.5232 25.8607 24.5666 25.8954 24.8705 26.399L25.1831 26.92L25.9472 26.946C26.5637 26.9634 26.7113 26.946 26.7547 26.8418C26.7894 26.755 26.5376 26.3209 26.1122 25.7304C25.7301 25.1921 25.4262 24.7405 25.4349 24.7319C25.4436 24.7232 26.1729 24.8447 27.0499 25.0097C27.9356 25.166 28.7605 25.2789 28.8907 25.2528C29.1339 25.2094 29.6548 24.6971 29.6548 24.5235C29.6548 24.3585 30.3582 18.3325 30.3755 18.3064C30.3929 18.2977 31.4001 18.8361 32.6331 19.5134L34.8647 20.729L33.7619 22.0054C33.1628 22.7 32.5984 23.3339 32.5116 23.412C32.4074 23.5076 32.1035 23.5683 31.5564 23.6031C31.1223 23.6378 30.7055 23.7073 30.6447 23.7594C30.5839 23.8115 30.4276 24.072 30.3061 24.3411C30.0629 24.8621 30.0716 25.1921 30.3321 25.2442C30.5145 25.2876 32.555 24.9924 32.911 24.8795C33.1541 24.8013 33.8314 24.1501 35.8893 22.0054C36.636 21.2239 36.6881 21.1458 36.6881 20.8071C36.6881 20.4511 36.6534 20.4077 35.6722 19.4613C35.1078 18.9316 34.4566 18.3151 34.2308 18.098L33.8053 17.716L36.28 12.6972C37.6432 9.94465 38.7894 7.68706 38.8328 7.68706C38.8762 7.68706 39.7793 8.07779 40.856 8.55536C42.0629 9.08503 42.9225 9.42367 43.0962 9.42367C43.5477 9.42367 43.9558 9.18054 44.3726 8.66824C44.8154 8.12989 44.9804 7.66101 44.9023 7.23554C44.8762 7.07056 44.3031 6.13279 43.5651 5.03873L42.2887 3.12846L41.2901 2.40777C40.7431 2.00835 40.2395 1.65235 40.17 1.61761C40.1092 1.58288 39.9877 1.20951 39.9008 0.792723C39.814 0.375937 39.7272 0.0199337 39.7098 0.00256729C39.6837 -0.0234814 39.5101 0.150179 39.3104 0.384621C38.9544 0.801407 38.9544 0.801407 38.3466 0.844822C37.5738 0.905603 37.5304 0.931652 35.4812 2.74641L33.8835 4.15306L30.8878 6.73192C30.4189 7.14002 30.089 7.37447 29.9674 7.36578C29.8719 7.3571 29.5506 7.33105 29.2641 7.29632L28.7431 7.24422L25.0962 7.0011ZM27.1454 17.9244C27.1194 17.8896 25.6346 17.551 23.8546 17.1603C22.0745 16.7782 20.5724 16.4656 20.5116 16.4656C20.4595 16.4743 20.1469 16.7608 19.8256 17.0995L19.2439 17.716L19.5478 19.1053C19.7214 19.8694 19.8777 20.5206 19.9125 20.5466C19.9472 20.5727 20.2251 20.7029 20.5376 20.8419C21.2236 21.1284 21.406 21.2847 21.406 21.5452C21.406 22.0662 21.9096 22.5611 22.2569 22.3701C22.3698 22.3093 22.5521 22.3701 23.0123 22.6219C23.6028 22.9432 23.6722 22.9605 25.6606 23.2123C26.7808 23.3513 27.7098 23.4555 27.7272 23.4468C27.7793 23.4034 27.2062 17.9765 27.1454 17.9244Z" fill="#D7D0CC"/>
</svg>
